<svg width="62" height="62" viewBox="0 0 62 62" fill="none" xmlns="http://www.w3.org/2000/svg">
<rect width="62" height="62" rx="8" fill="#1785C1"/>
<path d="M13.75 15.912L31.0086 10.875L48.25 15.912V26.2409C48.2499 31.5345 46.5841 36.6938 43.4886 40.9879C40.3932 45.282 36.025 48.4933 31.0029 50.1667C25.9793 48.4935 21.6096 45.2818 18.513 40.9868C15.4165 36.6917 13.7501 31.5311 13.75 26.2361V15.912Z" stroke="white" stroke-width="2" stroke-linejoin="round"/>
<path d="M13 27.5H18.5L21 22.5L24.5 36L27 28H30.5" stroke="white"/>
<path d="M37.075 34.9125L37 34.9875L36.9175 34.9125C33.355 31.68 31 29.5425 31 27.375C31 25.875 32.125 24.75 33.625 24.75C34.78 24.75 35.905 25.5 36.3025 26.52H37.6975C38.095 25.5 39.22 24.75 40.375 24.75C41.875 24.75 43 25.875 43 27.375C43 29.5425 40.645 31.68 37.075 34.9125ZM40.375 23.25C39.07 23.25 37.8175 23.8575 37 24.81C36.1825 23.8575 34.93 23.25 33.625 23.25C31.315 23.25 29.5 25.0575 29.5 27.375C29.5 30.2025 32.05 32.52 35.9125 36.0225L37 37.0125L38.0875 36.0225C41.95 32.52 44.5 30.2025 44.5 27.375C44.5 25.0575 42.685 23.25 40.375 23.25Z" fill="white"/>
</svg>
